<?xml version="1.0" standalone="no"?>
<!DOCTYPE svg PUBLIC "-//W3C//DTD SVG 20010904//EN"
 "http://www.w3.org/TR/2001/REC-SVG-20010904/DTD/svg10.dtd">
<svg version="1.0" xmlns="http://www.w3.org/2000/svg"
 width="1573.000000pt" height="292.000000pt" viewBox="0 0 1573.000000 292.000000"
 preserveAspectRatio="xMidYMid meet">
<g transform="translate(0.000000,292.000000) scale(0.100000,-0.100000)"
fill="#000000" stroke="none">
<path d="M5759 2850 c-3 -14 -7 -82 -8 -150 -2 -69 -5 -138 -7 -155 -3 -16 -4
-81 -4 -144 1 -132 -7 -201 -25 -201 -18 0 -38 -50 -37 -99 0 -42 12 -61 40
-61 10 0 12 -20 8 -87 -3 -49 -8 -140 -10 -203 -10 -212 -19 -375 -22 -390 -1
-8 -3 -40 -4 -70 -1 -30 -4 -49 -7 -42 -6 17 -43 15 -43 -2 0 -19 -37 -27 -44
-9 -3 8 -6 39 -6 69 0 30 -4 54 -10 54 -5 0 -10 23 -10 50 l0 50 -40 0 -40 0
0 60 c0 33 -4 60 -8 60 -5 0 -19 -11 -32 -25 l-23 -24 -27 19 c-42 30 -50 25
-50 -26 0 -42 -2 -46 -21 -41 -12 3 -22 0 -26 -9 -13 -35 -23 -7 -23 66 0 73
-2 80 -20 80 -11 0 -20 5 -20 10 0 6 -8 10 -19 10 -15 0 -20 10 -25 51 l-7 51
-32 -25 -33 -25 -27 20 c-15 11 -28 18 -28 16 -1 -1 -3 -19 -4 -38 -2 -19 -4
-38 -4 -42 -1 -5 -10 -8 -21 -8 -11 0 -20 -7 -20 -15 0 -8 -7 -15 -15 -15 -12
0 -15 16 -15 85 0 85 0 86 -34 116 -22 19 -41 49 -52 82 -21 68 -34 81 -34 36
0 -24 -7 -43 -23 -57 -23 -21 -24 -22 -40 -4 -9 9 -19 38 -23 62 -7 40 -8 42
-15 20 -4 -14 -13 -58 -19 -97 -11 -70 -13 -73 -39 -73 -28 0 -28 -1 -35 -77
-3 -42 -6 -143 -6 -225 0 -118 -3 -148 -14 -148 -10 0 -13 -19 -14 -78 -1
-112 -1 -112 -17 -112 -8 0 -15 5 -15 11 0 6 -10 9 -22 7 -13 -2 -23 -9 -23
-17 0 -8 -6 -16 -12 -18 -10 -4 -13 73 -13 361 l0 366 -182 -2 c-175 -3 -183
-4 -184 -23 -1 -11 -2 -26 -3 -33 -2 -27 -21 0 -21 30 0 23 -4 29 -16 24 -9
-3 -24 -6 -35 -6 -18 0 -19 -13 -19 -415 0 -408 0 -415 -20 -415 -19 0 -20 7
-20 174 l0 173 -22 -2 c-13 -1 -95 -3 -182 -4 l-159 -1 6 -110 7 -110 -26 0
c-28 0 -54 21 -54 44 0 8 -4 18 -10 21 -5 3 -10 15 -10 26 0 10 -6 19 -14 19
-18 0 -26 22 -26 77 0 63 -24 52 -28 -13 -2 -27 -9 -53 -16 -59 -11 -9 -25
-47 -28 -82 -1 -7 -7 -13 -15 -13 -8 0 -13 -12 -13 -29 0 -17 -5 -33 -10 -36
-6 -4 -10 -25 -9 -48 3 -74 -4 -433 -8 -407 -23 153 -36 210 -49 210 -11 0
-14 20 -14 94 0 52 -4 96 -9 98 -5 2 -11 46 -13 98 l-3 95 -45 5 -45 5 -6 95
c-4 72 -6 81 -7 36 l-2 -58 -42 6 c-42 6 -136 -14 -130 -28 1 -3 2 -26 2 -51
0 -38 -3 -45 -19 -45 -30 0 -51 -11 -51 -26 0 -8 -4 -14 -10 -14 -5 0 -10 20
-10 45 0 25 -4 45 -10 45 -5 0 -10 -24 -10 -54 0 -65 -9 -116 -21 -116 -5 0
-9 25 -9 55 l0 55 -120 0 -120 0 -1 48 c-1 53 -8 124 -14 130 -3 4 -32 10 -52
11 -9 1 -14 30 -15 104 l-2 102 -3 -97 c-5 -132 -23 -126 -23 7 0 58 -3 105
-7 105 -5 0 -8 -47 -7 -105 1 -58 -3 -105 -7 -105 -5 0 -9 46 -9 102 0 56 -3
98 -8 94 -4 -4 -7 -48 -8 -98 l0 -91 -55 -16 -54 -17 -3 -167 -2 -167 -29 0
c-58 0 -61 -5 -61 -100 0 -82 -1 -88 -22 -94 -49 -13 -114 -3 -102 15 3 5 0 9
-5 9 -7 0 -11 -36 -11 -100 0 -55 -3 -100 -6 -100 -4 0 -39 18 -78 39 -115 64
-208 86 -361 85 -122 0 -135 -2 -216 -32 -47 -18 -120 -52 -162 -76 -44 -25
-77 -39 -77 -32 0 7 -11 23 -25 36 -18 17 -25 34 -25 62 l0 38 -74 0 -73 0 0
-82 c0 -54 -3 -83 -11 -86 -7 -2 -12 -25 -12 -59 0 -40 -3 -53 -12 -49 -7 3
-20 9 -29 12 -13 5 -17 31 -22 156 -4 83 -7 182 -7 220 0 61 -2 68 -19 68 -11
0 -23 4 -26 10 -3 6 -21 10 -39 10 -41 0 -66 -32 -66 -83 0 -29 -3 -34 -22
-33 -13 1 -25 -3 -26 -9 -2 -5 -8 -15 -14 -22 -5 -7 -7 -17 -4 -22 4 -6 -11
-11 -36 -13 -29 -2 -43 -8 -44 -18 -1 -8 -2 -21 -3 -27 0 -7 -10 -13 -20 -13
-27 0 -51 -10 -51 -22 0 -22 -31 -38 -74 -38 -44 0 -46 -1 -46 -30 0 -30 -8
-35 -52 -31 -16 2 -18 -8 -18 -90 l0 -92 -32 7 c-17 3 -37 11 -45 17 -14 13
-19 74 -4 65 5 -4 17 -3 26 1 14 5 11 9 -16 22 -19 9 -38 26 -44 39 -9 21 -16
22 -102 22 -86 0 -93 -2 -93 -20 0 -12 -13 -26 -37 -38 l-36 -19 26 -7 c52
-13 22 -70 -45 -86 -31 -8 -32 -8 -5 -9 25 -1 27 -4 27 -41 0 -33 -3 -40 -19
-40 -12 0 -21 8 -24 23 -2 12 -5 -65 -6 -170 l-1 -193 7865 0 7865 0 0 271 0
271 -67 -4 -68 -3 -3 153 c-2 116 -6 152 -15 149 -9 -3 -12 -44 -12 -150 0
-111 -3 -147 -12 -147 -10 0 -13 25 -13 90 0 50 -4 90 -9 90 -15 0 -18 -22
-15 -102 l3 -78 -30 0 c-29 0 -29 1 -29 55 l0 55 -50 0 -50 0 0 79 0 80 -117
-2 -118 -2 -3 -33 -3 -32 -95 0 c-87 0 -94 1 -94 20 0 16 -7 20 -34 20 -21 0
-36 6 -40 15 -3 8 -17 15 -31 15 -20 0 -25 5 -25 25 0 22 -4 25 -34 25 -32 0
-35 3 -38 33 -4 43 -33 45 -33 2 -1 -26 -4 -30 -33 -33 -26 -3 -32 -8 -32 -28
0 -13 -4 -24 -10 -24 -6 0 -10 -31 -10 -74 0 -80 -7 -92 -46 -82 -24 6 -24 8
-24 116 0 67 4 110 10 110 6 0 10 20 10 45 0 25 4 45 10 45 5 0 7 7 4 15 -4 8
-12 15 -20 15 -24 0 -16 38 9 42 27 4 30 33 2 33 -16 0 -21 8 -23 37 l-3 38
-60 0 -59 0 0 -35 c0 -33 -7 -40 -37 -36 -7 1 -13 -7 -13 -19 0 -15 6 -20 25
-20 31 0 34 -29 5 -37 -19 -5 -29 -33 -11 -33 12 0 21 -103 23 -292 3 -161 -2
-190 -17 -100 l-7 42 -78 0 c-86 0 -89 -2 -85 -73 2 -30 0 -37 -15 -37 -15 0
-18 7 -17 33 2 26 -2 33 -20 35 l-23 3 0 670 0 669 -22 5 c-13 3 -126 4 -253
3 l-230 -3 -5 -634 c-5 -585 -6 -632 -21 -615 -29 34 -39 62 -39 113 0 39 -4
51 -15 51 -8 0 -15 -7 -15 -15 0 -12 -13 -15 -60 -15 -47 0 -60 3 -60 15 0 8
-7 15 -15 15 -8 0 -15 -8 -15 -18 0 -32 -166 -182 -296 -267 -93 -62 -126 -69
-290 -70 l-140 0 -85 42 c-134 66 -311 231 -311 289 0 17 -6 24 -20 24 -10 0
-17 -4 -14 -9 9 -13 -19 -21 -75 -21 -37 0 -49 4 -49 15 0 33 -28 14 -33 -23
-7 -51 -40 -136 -79 -202 l-33 -55 -3 415 c-1 273 1 416 8 418 16 6 12 29 -6
36 -9 3 -74 6 -145 6 l-129 0 0 165 c0 103 -4 165 -10 165 -5 0 -10 6 -10 14
0 7 -9 16 -20 19 -12 3 -20 14 -20 26 0 16 -6 20 -22 18 -19 -2 -24 4 -26 31
l-3 32 -90 0 -89 0 0 -34 c0 -31 -2 -33 -32 -32 -27 1 -34 -3 -36 -22 -2 -15
-9 -22 -20 -20 -11 2 -16 -3 -14 -14 2 -12 -4 -18 -18 -18 -20 0 -20 -5 -20
-245 l0 -245 -25 0 -25 0 0 135 c0 113 -2 135 -15 135 -10 0 -15 10 -15 33 0
18 -5 38 -12 45 -19 19 -494 17 -541 -3 -42 -17 -77 -59 -77 -91 0 -24 -19
-34 -21 -11 -1 6 -1 67 0 135 l2 122 -45 0 c-44 0 -46 1 -46 30 l0 30 -184 0
-185 0 -3 -27 c-3 -26 -6 -28 -47 -28 -27 0 -46 -5 -48 -12 -6 -18 -99 -17
-106 1 -4 10 -31 12 -124 9 -65 -2 -130 -8 -145 -13 -18 -6 -28 -5 -28 1 0 12
-128 10 -136 -3 -3 -4 -14 -8 -25 -8 -16 0 -19 -7 -19 -40 0 -29 -4 -40 -15
-40 -11 0 -15 11 -15 40 0 33 -3 40 -20 40 -18 0 -20 7 -20 60 l0 60 -220 0
-220 0 0 -385 0 -385 -25 0 c-14 0 -25 6 -26 13 0 6 -2 23 -4 37 -1 14 -6 77
-10 140 -4 63 -8 117 -10 120 -1 3 -6 41 -10 85 -11 132 -48 250 -89 284 -9 7
-33 19 -53 26 l-38 13 -5 79 c-4 61 -8 77 -19 75 -8 -2 -81 -3 -163 -4 l-148
0 0 -193 c0 -162 -2 -194 -15 -199 -9 -3 -15 -19 -15 -41 0 -33 -2 -35 -34
-35 -33 0 -34 -1 -32 -37 0 -21 -4 -38 -11 -40 -7 -3 -13 2 -13 11 0 9 -7 16
-15 16 -13 0 -15 36 -15 264 l0 263 -57 2 c-31 0 -61 5 -67 11 -16 16 -56 12
-56 -5 0 -12 -17 -15 -90 -15 l-90 0 0 -274 c0 -231 -2 -275 -15 -286 -12 -10
-15 -42 -15 -166 0 -96 -4 -154 -10 -154 -5 0 -10 7 -10 15 0 11 -12 15 -45
15 -43 0 -45 1 -45 30 l0 30 -110 0 c-66 0 -111 -4 -111 -10 -1 -5 -3 -14 -4
-20 -1 -5 -3 -14 -4 -19 0 -6 -16 -11 -33 -13 -18 -2 -34 -9 -34 -15 -1 -7 -2
-76 -3 -153 l-1 -140 -30 0 -30 0 0 120 0 120 -90 0 -90 0 0 65 c0 65 -3 70
-38 66 -8 -1 -22 5 -32 14 -13 11 -33 16 -64 14 -25 -2 -48 -1 -51 2 -3 3 -6
33 -7 67 -1 58 -2 60 -31 66 -16 3 -99 6 -183 6 l-154 0 0 -110 0 -110 -80 0
-80 0 0 140 0 140 -38 0 c-21 0 -43 5 -49 11 -6 6 -33 10 -62 8 -28 -2 -52 -1
-52 4 -1 4 -2 17 -3 30 -1 21 -6 22 -78 25 l-78 3 0 -35 0 -35 -82 -3 -83 -3
0 -167 c0 -153 -1 -168 -17 -168 -15 0 -18 10 -19 63 0 34 -2 80 -3 102 -2 22
-7 144 -10 270 -4 127 -9 299 -11 382 l-5 153 24 6 c21 5 25 12 24 44 0 21 2
43 6 48 3 5 -1 12 -9 16 -8 3 -15 15 -15 26 0 11 -4 20 -10 20 -5 0 -10 8 -10
18 0 10 -3 21 -6 24 -3 3 -8 100 -10 215 -6 248 -17 428 -25 393z m6329 -2517
l-3 -68 -45 -1 c-68 -1 -70 1 -70 72 l0 64 60 0 61 0 -3 -67z m152 -28 l0 -95
-40 0 c-38 0 -40 2 -40 30 0 23 -4 30 -20 30 -18 0 -20 7 -20 65 l0 65 60 0
60 0 0 -95z m1093 88 l-73 -4 0 -64 0 -65 -89 0 -90 0 -3 53 -3 52 -135 0
-135 0 -3 -32 c-3 -33 -4 -33 -58 -33 l-54 0 0 -61 0 -60 -42 3 -43 3 -3 48
-3 47 -140 0 -139 0 0 -35 c0 -28 -4 -35 -19 -35 -25 0 -27 5 -23 105 l3 85
562 -2 c309 -1 529 -4 490 -5z"/>
</g>
</svg>
